<svg xmlns="http://www.w3.org/2000/svg" width="48" height="60" viewBox="0 0 48 60" shape-rendering="crispEdges">
  <rect x="14" y="2" width="20" height="4" fill="#24150f"/>
  <rect x="12" y="6" width="24" height="4" fill="#2b1a13"/>
  <rect x="10" y="10" width="28" height="6" fill="#3a241a"/>
  <rect x="8" y="16" width="32" height="8" fill="#4a2d21"/>

  <rect x="12" y="16" width="24" height="18" fill="#f4c79b"/>
  <rect x="12" y="14" width="6" height="8" fill="#4a2d21"/>
  <rect x="30" y="14" width="6" height="8" fill="#4a2d21"/>
  <rect x="16" y="22" width="4" height="4" fill="#2d2018"/>
  <rect x="28" y="22" width="4" height="4" fill="#2d2018"/>
  <rect x="20" y="28" width="8" height="2" fill="#d28f7e"/>
  <rect x="18" y="32" width="12" height="2" fill="#e7b18f"/>

  <rect x="16" y="34" width="16" height="4" fill="#f4c79b"/>
  <rect x="14" y="38" width="20" height="4" fill="#d74439"/>
  <rect x="10" y="42" width="28" height="12" fill="#d74439"/>
  <rect x="10" y="42" width="4" height="10" fill="#b1342d"/>
  <rect x="34" y="42" width="4" height="10" fill="#b1342d"/>
  <rect x="18" y="42" width="12" height="4" fill="#f3efe4"/>

  <rect x="8" y="42" width="4" height="10" fill="#f4c79b"/>
  <rect x="36" y="42" width="4" height="10" fill="#f4c79b"/>
  <rect x="8" y="52" width="4" height="4" fill="#2f5fba"/>
  <rect x="36" y="52" width="4" height="4" fill="#2f5fba"/>

  <rect x="12" y="54" width="10" height="6" fill="#2f5fba"/>
  <rect x="26" y="54" width="10" height="6" fill="#2f5fba"/>
  <rect x="12" y="58" width="10" height="2" fill="#1f4389"/>
  <rect x="26" y="58" width="10" height="2" fill="#1f4389"/>
</svg>
