<svg xmlns="http://www.w3.org/2000/svg" width="960" height="160" viewBox="0 0 960 160" shape-rendering="crispEdges">
  <rect width="960" height="160" fill="#d9d79e"/>
  <rect y="12" width="960" height="8" fill="#f6f1de"/>
  <rect y="20" width="960" height="8" fill="#b7af76"/>
  <rect y="128" width="960" height="32" fill="#8a6e39"/>
  <rect y="120" width="960" height="8" fill="#b5934c"/>

  <rect x="12" y="24" width="92" height="96" fill="#665c60"/>
  <rect x="20" y="32" width="76" height="40" fill="#f4f6fb"/>
  <rect x="26" y="78" width="18" height="14" fill="#c65a47"/>
  <rect x="48" y="78" width="14" height="14" fill="#4e86c9"/>
  <rect x="66" y="78" width="14" height="14" fill="#5c6a7c"/>
  <rect x="32" y="98" width="18" height="18" fill="#3f414e"/>
  <rect x="56" y="98" width="12" height="18" fill="#4b4f5f"/>
  <rect x="74" y="98" width="10" height="18" fill="#4b4f5f"/>

  <rect x="118" y="38" width="70" height="82" fill="#5f5458"/>
  <rect x="126" y="46" width="54" height="58" fill="#f7f7fb"/>
  <rect x="136" y="56" width="16" height="10" fill="#495063"/>
  <rect x="156" y="56" width="14" height="10" fill="#74c076"/>
  <rect x="136" y="72" width="34" height="12" fill="#d9d1b5"/>

  <rect x="202" y="24" width="28" height="96" fill="#756d72"/>
  <rect x="208" y="30" width="16" height="50" fill="#eff4fb"/>
  <rect x="208" y="84" width="16" height="30" fill="#50515d"/>

  <rect x="244" y="66" width="174" height="16" fill="#514647"/>
  <rect x="252" y="74" width="158" height="10" fill="#6e5f4f"/>
  <rect x="258" y="82" width="70" height="38" fill="#eadc8e"/>
  <rect x="332" y="82" width="70" height="38" fill="#eadc8e"/>
  <g fill="#f5eeaf">
    <rect x="258" y="82" width="70" height="38"/>
    <rect x="332" y="82" width="70" height="38"/>
  </g>
  <g fill="#e0d183">
    <rect x="258" y="82" width="10" height="38"/><rect x="278" y="82" width="10" height="38"/><rect x="298" y="82" width="10" height="38"/><rect x="318" y="82" width="10" height="38"/>
    <rect x="332" y="82" width="10" height="38"/><rect x="352" y="82" width="10" height="38"/><rect x="372" y="82" width="10" height="38"/><rect x="392" y="82" width="10" height="38"/>
  </g>
  <rect x="264" y="120" width="58" height="8" fill="#5f5349"/>
  <rect x="338" y="120" width="58" height="8" fill="#5f5349"/>

  <rect x="456" y="34" width="78" height="90" fill="#8b7e7a"/>
  <rect x="462" y="40" width="66" height="78" fill="#c8b884"/>
  <rect x="472" y="52" width="46" height="46" fill="#f8f6f0"/>
  <rect x="482" y="60" width="26" height="4" fill="#9aa7b8"/>
  <rect x="482" y="70" width="26" height="4" fill="#9aa7b8"/>
  <rect x="482" y="80" width="26" height="4" fill="#9aa7b8"/>

  <rect x="544" y="34" width="78" height="90" fill="#8b7e7a"/>
  <rect x="550" y="40" width="66" height="78" fill="#c8b884"/>
  <rect x="560" y="52" width="46" height="46" fill="#f8f6f0"/>
  <rect x="570" y="60" width="26" height="4" fill="#9aa7b8"/>
  <rect x="570" y="70" width="26" height="4" fill="#9aa7b8"/>
  <rect x="570" y="80" width="26" height="4" fill="#9aa7b8"/>

  <rect x="636" y="28" width="40" height="52" fill="#8db7dc"/>
  <rect x="642" y="34" width="28" height="18" fill="#cbe8fb"/>
  <rect x="642" y="56" width="28" height="18" fill="#cbe8fb"/>
  <rect x="664" y="34" width="6" height="8" fill="#f7ffff"/>

  <rect x="780" y="28" width="164" height="98" fill="#7d7480"/>
  <rect x="788" y="36" width="148" height="82" fill="#eae7fb"/>
  <rect x="796" y="76" width="132" height="8" fill="#5b5060"/>
  <rect x="796" y="84" width="132" height="34" fill="#6f6377"/>
  <g>
    <rect x="806" y="88" width="12" height="14" fill="#6ac95d"/>
    <rect x="822" y="88" width="12" height="14" fill="#d8b44e"/>
    <rect x="838" y="88" width="12" height="14" fill="#4c8cdb"/>
    <rect x="854" y="88" width="12" height="14" fill="#d96c59"/>
    <rect x="870" y="88" width="12" height="14" fill="#6e63d9"/>
    <rect x="886" y="88" width="12" height="14" fill="#4c8cdb"/>
    <rect x="902" y="88" width="12" height="14" fill="#d8b44e"/>
    <rect x="918" y="88" width="10" height="14" fill="#6ac95d"/>
    <rect x="854" y="104" width="14" height="8" fill="#d8b44e"/>
    <rect x="870" y="104" width="14" height="8" fill="#d96c59"/>
  </g>
</svg>
