<svg xmlns="http://www.w3.org/2000/svg" width="960" height="720" viewBox="0 0 960 720" shape-rendering="crispEdges">
  <rect width="960" height="720" fill="#f6f4fa"/>
  <g stroke="#d6d1e4" stroke-width="3">
    <line x1="-120" y1="120" x2="360" y2="720"/>
    <line x1="-24" y1="120" x2="456" y2="720"/>
    <line x1="72" y1="120" x2="552" y2="720"/>
    <line x1="168" y1="120" x2="648" y2="720"/>
    <line x1="264" y1="120" x2="744" y2="720"/>
    <line x1="360" y1="120" x2="840" y2="720"/>
    <line x1="456" y1="120" x2="936" y2="720"/>
    <line x1="552" y1="120" x2="1032" y2="720"/>
    <line x1="648" y1="120" x2="1128" y2="720"/>
    <line x1="744" y1="120" x2="1224" y2="720"/>
    <line x1="840" y1="120" x2="1320" y2="720"/>
  </g>
  <g stroke="#e9e5f2" stroke-width="2">
    <line x1="-72" y1="120" x2="408" y2="720"/>
    <line x1="24" y1="120" x2="504" y2="720"/>
    <line x1="120" y1="120" x2="600" y2="720"/>
    <line x1="216" y1="120" x2="696" y2="720"/>
    <line x1="312" y1="120" x2="792" y2="720"/>
    <line x1="408" y1="120" x2="888" y2="720"/>
    <line x1="504" y1="120" x2="984" y2="720"/>
    <line x1="600" y1="120" x2="1080" y2="720"/>
    <line x1="696" y1="120" x2="1176" y2="720"/>
    <line x1="792" y1="120" x2="1272" y2="720"/>
  </g>
</svg>
