<svg xmlns="http://www.w3.org/2000/svg" width="960" height="720" viewBox="0 0 960 720" shape-rendering="crispEdges">
  <rect width="960" height="720" fill="#ffffff"/>
  <rect y="372" width="960" height="8" fill="#cfcfcf"/>
  <rect y="506" width="960" height="4" fill="#2b2b2b"/>
  <rect y="510" width="960" height="46" fill="#e8e8e8"/>
  <rect y="560" width="960" height="4" fill="#7a7a7a"/>

  <rect x="40" y="440" width="48" height="66" fill="#2b2b2b"/>
  <rect x="114" y="420" width="36" height="86" fill="#2b2b2b"/>
  <rect x="180" y="454" width="42" height="52" fill="#2b2b2b"/>
  <rect x="262" y="432" width="64" height="74" fill="#2b2b2b"/>
  <rect x="360" y="446" width="28" height="60" fill="#2b2b2b"/>
  <rect x="416" y="430" width="52" height="76" fill="#2b2b2b"/>
  <rect x="504" y="450" width="40" height="56" fill="#2b2b2b"/>
  <rect x="576" y="422" width="78" height="84" fill="#2b2b2b"/>
  <rect x="700" y="438" width="44" height="68" fill="#2b2b2b"/>
  <rect x="776" y="410" width="56" height="96" fill="#2b2b2b"/>
  <rect x="868" y="446" width="52" height="60" fill="#2b2b2b"/>

  <rect x="150" y="340" width="34" height="6" fill="#b7b7b7"/>
  <rect x="380" y="320" width="44" height="6" fill="#b7b7b7"/>
  <rect x="620" y="346" width="32" height="6" fill="#b7b7b7"/>
</svg>
